<svg xmlns="http://www.w3.org/2000/svg" width="22" height="22" viewBox="0 0 22 22">
  <path id="dislike" d="M20.4,0H18.1a1.606,1.606,0,0,0-1.6,1.6V1.94A21.319,21.319,0,0,0,6.847,0H5.38A4.343,4.343,0,0,0,1.09,3.613L.063,9.572a4.353,4.353,0,0,0,4.29,5.095H8.511a8.552,8.552,0,0,0-.519,2.979C7.992,21.09,9.941,22,10.971,22c1.9,0,2.062-1.775,2.062-3.437,0-2.029,2.276-3.716,3.478-4.466A1.6,1.6,0,0,0,18.1,15.583H20.4a1.606,1.606,0,0,0,1.6-1.6V1.6A1.606,1.606,0,0,0,20.4,0ZM11.659,18.562c0,2.062-.349,2.062-.687,2.062-.645,0-1.6-.794-1.6-2.979a6.509,6.509,0,0,1,.8-3.285A.688.688,0,0,0,9.6,13.292H4.353A2.977,2.977,0,0,1,1.419,9.806L2.446,3.848A2.97,2.97,0,0,1,5.38,1.375H6.846c6.236,0,9.36,1.951,9.653,2.144v8.992C15.736,12.917,11.659,15.236,11.659,18.562Zm8.966-4.583a.229.229,0,0,1-.229.229H18.1a.229.229,0,0,1-.229-.229V1.6a.232.232,0,0,1,.229-.229H20.4a.229.229,0,0,1,.229.229Z" transform="translate(0)" fill="#fff"/>
</svg>
